<?xml version="1.0" standalone="no"?>
<!DOCTYPE svg PUBLIC "-//W3C//DTD SVG 20010904//EN"
 "http://www.w3.org/TR/2001/REC-SVG-20010904/DTD/svg10.dtd">
<svg version="1.0" xmlns="http://www.w3.org/2000/svg"
 width="500.000000pt" height="500.000000pt" viewBox="0 0 500.000000 500.000000"
 preserveAspectRatio="xMidYMid meet">
<metadata>
Created by potrace 1.14, written by Peter Selinger 2001-2017
</metadata>
<g transform="translate(0.000000,500.000000) scale(0.100000,-0.100000)"
fill="#000000" stroke="none">
<path d="M647 4983 c90 -13 108 -13 150 0 47 15 45 15 -102 15 l-150 0 102
-15z"/>
<path d="M3157 4993 c-12 -11 -7 -57 7 -75 7 -10 28 -24 47 -32 63 -26 119 16
119 90 0 24 -2 24 -83 24 -46 0 -87 -3 -90 -7z"/>
<path d="M1340 4788 c-57 -21 -102 -87 -94 -134 8 -50 13 -59 47 -92 40 -39
100 -54 143 -36 62 26 101 104 83 168 -10 37 -63 95 -88 97 -9 1 -27 3 -41 4
-14 2 -36 -1 -50 -7z"/>
<path d="M220 4757 c-107 -37 -94 -206 17 -234 131 -32 203 119 101 214 -29
28 -73 35 -118 20z"/>
<path d="M2152 4580 c-63 -39 -82 -132 -38 -193 9 -12 23 -32 32 -44 15 -21
14 -23 -54 -67 -62 -39 -156 -116 -233 -188 -42 -39 -54 -40 -100 -3 -45 35
-73 38 -116 10 -18 -12 -21 -21 -17 -52 6 -50 25 -77 77 -110 23 -15 44 -28
46 -30 6 -4 -82 -183 -91 -183 -13 0 -56 64 -73 110 -36 97 -47 116 -87 144
-105 75 -232 19 -232 -104 0 -49 20 -92 71 -152 44 -52 184 -188 194 -188 22
0 4 -21 -63 -74 -109 -88 -133 -97 -226 -88 -10 1 -44 22 -76 46 -97 76 -156
82 -222 24 -29 -26 -34 -36 -34 -75 0 -99 62 -147 259 -198 59 -15 84 -19 219
-32 61 -6 63 -7 45 -23 -26 -25 -96 -50 -157 -56 -189 -21 -304 -1 -373 65
-29 28 -66 41 -111 41 -70 0 -119 -61 -108 -133 10 -59 34 -93 85 -120 45 -25
158 -63 210 -72 87 -14 129 -17 244 -17 72 0 127 -4 127 -9 0 -5 -51 -33 -112
-63 -144 -69 -224 -93 -373 -110 -41 -5 -93 -38 -105 -67 -27 -65 22 -129 116
-150 41 -9 66 -21 81 -40 30 -35 89 -62 133 -60 168 8 447 7 458 -2 12 -10 52
-79 52 -91 0 -12 -112 -25 -180 -22 -86 4 -121 12 -170 37 -81 41 -166 26
-192 -34 -35 -85 4 -146 110 -172 146 -36 365 -36 519 -1 62 14 121 23 130 20
58 -19 90 -51 99 -100 8 -46 -114 -201 -205 -258 -21 -14 -78 -36 -127 -51
-122 -37 -144 -46 -145 -59 0 -6 -2 -19 -4 -28 -3 -19 59 -65 98 -72 42 -7
159 23 237 61 69 35 163 101 200 142 8 9 44 41 80 71 35 30 71 61 78 68 18 16
41 15 77 -4 17 -9 57 -24 90 -35 33 -11 69 -26 79 -34 18 -14 18 -16 -14 -47
-51 -52 -110 -144 -131 -206 -32 -92 -39 -128 -53 -277 -4 -33 -9 -78 -12
-100 -3 -22 -7 -51 -9 -65 -2 -14 -7 -45 -11 -70 -4 -25 -7 -48 -6 -52 1 -4
-2 -29 -7 -55 -5 -26 -12 -77 -16 -113 -4 -36 -9 -78 -11 -95 -4 -38 -13 -149
-19 -240 -7 -110 -17 -228 -21 -250 -2 -10 -6 -37 -9 -60 -4 -22 -10 -56 -15
-75 -6 -19 -10 -38 -10 -42 0 -5 267 -8 594 -8 l594 0 -5 67 c-3 38 -6 318 -8
623 -3 526 -5 597 -20 680 -10 53 -55 183 -70 200 -7 8 -10 21 -7 29 3 8 0 11
-7 7 -6 -4 -11 -1 -11 8 0 9 -5 16 -11 16 -5 0 -7 5 -4 10 3 5 -1 10 -10 10
-9 0 -13 5 -10 10 3 6 -1 13 -9 16 -9 3 -16 12 -16 18 0 7 -9 22 -20 34 -11
12 -20 23 -20 26 0 2 30 9 67 16 36 6 81 17 99 25 32 13 34 13 61 -21 15 -19
58 -66 96 -104 70 -73 73 -80 57 -110 -12 -22 38 -96 76 -110 42 -16 78 17 70
65 -6 34 10 42 75 39 34 -2 64 -6 67 -8 2 -3 17 1 33 10 16 8 29 12 29 9 0
-17 39 18 42 37 4 27 32 35 53 16 40 -36 50 -41 87 -42 31 0 44 5 59 23 10 13
19 31 19 40 0 23 -37 81 -58 88 -30 12 -146 87 -179 116 -46 42 -74 108 -78
187 -4 94 2 114 46 150 l39 31 103 -50 c121 -58 174 -78 367 -137 161 -50 221
-57 262 -30 39 26 54 76 33 118 -29 60 -73 78 -222 93 -115 12 -178 27 -244
60 -36 19 -73 40 -80 47 -8 7 -26 23 -41 35 l-28 21 35 26 c44 34 69 80 74
139 1 5 9 6 20 2 18 -5 51 -11 131 -20 44 -6 246 -6 280 0 14 2 43 6 65 10
123 18 302 66 385 103 40 18 102 71 94 83 -2 4 0 10 6 14 5 3 10 20 10 37 0
23 -10 40 -41 68 -22 21 -52 40 -66 43 -28 5 -79 -8 -103 -28 -19 -15 -85 -45
-99 -45 -6 0 -11 -4 -11 -8 0 -7 -59 -26 -115 -38 -54 -11 -82 -15 -161 -20
-99 -6 -154 4 -194 37 l-25 20 25 -7 c72 -22 329 11 418 53 46 22 83 72 75
103 -8 36 -43 70 -69 70 -12 0 -52 -14 -89 -31 -103 -47 -143 -59 -205 -59
-94 0 -120 9 -172 61 -80 80 -75 113 22 140 61 17 165 58 263 104 43 21 92 67
112 105 26 51 4 104 -58 137 -16 8 -11 14 38 47 68 45 96 93 75 131 -19 36
-67 32 -175 -14 l-90 -39 -41 24 c-47 27 -80 30 -110 10 -14 -10 -51 -16 -106
-17 -83 -2 -87 -1 -127 31 -45 37 -58 64 -41 85 7 8 46 28 88 44 204 79 294
139 352 233 26 43 26 98 0 126 -25 27 -86 30 -133 6 -30 -16 -166 -119 -178
-136 -3 -4 -32 -19 -64 -32 -67 -27 -110 -27 -215 3 -48 13 -60 20 -45 24 11
4 23 6 27 4 4 -1 13 5 20 14 7 9 45 29 83 45 39 15 85 38 103 50 40 26 82 85
82 114 0 24 -42 70 -63 70 -26 0 -82 -23 -122 -50 -121 -82 -233 -106 -327
-70 -52 19 -76 40 -48 40 21 0 93 85 118 138 29 65 30 101 5 145 -28 47 -63
61 -107 43 -38 -16 -62 -47 -70 -89 -5 -29 -34 -57 -96 -93 -60 -35 -82 -36
-133 -8 -121 64 -297 112 -435 118 -81 4 -235 -15 -313 -38 -55 -17 -72 -9
-96 42 -19 41 -56 90 -84 110 -33 23 -91 24 -127 2z m112 -1404 c-3 -9 -14
-16 -23 -16 -14 0 -14 2 -1 10 8 5 11 10 5 10 -5 0 -3 4 5 10 18 11 22 7 14
-14z m-857 -613 c-3 -5 -20 -9 -39 -10 -30 -2 -31 -1 -10 7 13 6 28 8 33 4 5
-3 9 0 9 7 0 7 3 10 6 6 3 -3 4 -9 1 -14z m2069 -680 c20 -32 48 -69 61 -83
68 -68 38 -88 -36 -23 -58 51 -93 109 -84 142 8 33 19 26 59 -36z"/>
<path d="M0 3096 l0 -68 23 14 c33 22 34 68 2 98 l-25 23 0 -67z"/>
<path d="M482 2244 c-27 -19 -31 -84 -6 -108 32 -33 52 -37 84 -21 41 21 53
55 35 98 -20 49 -68 62 -113 31z"/>
<path d="M144 1733 c-59 -29 -85 -111 -55 -170 25 -50 61 -74 112 -75 74 -1
122 55 118 140 -2 38 -9 53 -35 80 -19 19 -42 32 -57 32 -14 0 -31 2 -39 4 -7
3 -27 -2 -44 -11z"/>
<path d="M4132 1113 c-45 -22 -61 -84 -35 -135 16 -33 44 -49 85 -50 41 -1 86
46 83 88 -5 83 -68 128 -133 97z"/>
</g>
</svg>
